# xmcd
#
# Track frame offsets:
# 150
# 15185
# 31590
# 45783
# 61699
# 76422
# 91098
# 105471
# 127443
# 141519
# 154937
# 171420
# 187129
# 202181
# 219619
# 232663
# 250000
# 265987
#
# Disc length: 3777 seconds
#
#
# Revision: 1
# Processed by: cddbd v1.5.2PL0 Copyright (c) Steve Scherf et al.
# Submitted via: MfcCDDB 1.28 
#
DISCID=ee0ebf12
DTITLE=Various Artist - Sul em danca
DYEAR=2000
DGENRE=Country
TTITLE0=Bochicho-Vanera
TTITLE1=Rumo coracao-chamame
TTITLE2=Meio touro meio galo-vanera
TTITLE3=Galo missioneiro-chamarrita 
TTITLE4=La das bibocas-vanera
TTITLE5=Vem comigo-xote
TTITLE6=Vanerinha da saudade-Vanera
TTITLE7=Surungo macanudo-vanera
TTITLE8=Numa bailanta-vanera
TTITLE9=Parando rodeio-vanera
TTITLE10=E disso que o velho gosta-vanera
TTITLE11=Batendo cangaia-rancheira
TTITLE12=Romance do vida longa-vanera
TTITLE13=Bagual corcoveador-vanera
TTITLE14=Essencia campeira-vanera
TTITLE15=De quando um malo se bolca-vanerao
TTITLE16=Bateu saudade-vanera
TTITLE17=Deus gaucho-vanera
EXTD=
EXTT0=
EXTT1=
EXTT2=
EXTT3=
EXTT4=
EXTT5=
EXTT6=
EXTT7=
EXTT8=
EXTT9=
EXTT10=
EXTT11=
EXTT12=
EXTT13=
EXTT14=
EXTT15=
EXTT16=
EXTT17=
PLAYORDER=
